# xmcd
#
# Track frame offsets: 
#        150
#        22355
#        48697
#        75502
#        94540
#        117797
#        146322
#        175187
#        200400
#        225552
#
# Disc length: 3340 seconds
#
# Revision: 1
# Processed by: cddbd v1.5.2PL0 Copyright (c) Steve Scherf et al.
# Submitted via: ExactAudioCopyFreeDBPlugin 1.0
#
DISCID=7c0d0a0a
DTITLE=Superblue - 2
DYEAR=1990
DGENRE=Jazz
TTITLE0=Flight To Jordan (Duke Jordan)
TTITLE1=Nica's Dream (Horace Silver)
TTITLE2='Round Midnight (Thelonius Monk)
TTITLE3=Take Your Pick (Hank Mobley)
TTITLE4=Blue Minor (Sonny Clark)
TTITLE5=Autumn Leaves (J. Mercer, J. Kosma, J.A. Prevert)
TTITLE6=Blue Bossa (Kenny Dorham)
TTITLE7=Desert Moonlight (Lee Morgan)
TTITLE8=Low Tide (Elmo Hope)
TTITLE9=Cool Struttin' (Sonny Clark)
EXTD=YEAR: 1989
EXTT0=
EXTT1=
EXTT2=
EXTT3=
EXTT4=
EXTT5=
EXTT6=
EXTT7=
EXTT8=
EXTT9=
PLAYORDER=
